<?xml version="1.0" encoding="utf-8"?>
<svg contentScriptType="text/ecmascript" xmlns:xlink="http://www.w3.org/1999/xlink" zoomAndPan="magnify" contentStyleType="text/css" viewBox="127.16599999999994 -3.775999999999982 384.27600000000007 623.751994" xmlns:cacoo="http://cacoo.com/" preserveAspectRatio="xMidYMin meet" xmlns="http://www.w3.org/2000/svg" version="1.1"><g><g transform="translate(142.16599999999994 78.41200000000003)"><path fill="#ffcc99" fill-opacity="1.0" d="M16.048 16.5839992 Q16.048 10.4060822 20.577374999999996 6.8103742 Q24.832983 3.4319992 31.519999999999996 3.4319992 Q38.203182 3.4319992 42.460498 6.8103742 Q46.992999999999995 10.4071178 46.992999999999995 16.5839992 Q46.992999999999995 22.9796162 42.460498 27.5019992 Q37.928383 32.0239992 31.519999999999996 32.0239992 Q25.107670999999996 32.0239992 20.577374999999996 27.5019992 Q16.048 22.9809152 16.048 16.5839992 L16.048 16.5839992z" stroke="none"/><path fill="#666666" fill-opacity="1.0" d="M46.144001 12.584 Q45.588500999999994 12.7985 44.607502 12.995125 Q42.6455 13.388374 40.518001999999996 13.299 Q37.539501 13.173875 34.655502 12.101375 Q31.0505 10.760749 27.800000999999998 8.007999 Q27.498562999999997 8.372499 26.944156 8.918625 Q25.835345999999998 10.010874 24.570501 10.918999 Q20.523001999999998 13.824999 16.433002 13.799999 Q17.0471282 7.9533305 21.433124 3.990375 Q25.849466 0.0 31.815999499999997 0.0 Q44.164108 0.0 46.903999 12.008 Q46.575805 12.27961 46.142996999999994 12.584001 L46.144001 12.584z" stroke="none"/><path fill="#ffffff" fill-opacity="1.0" d="M22.92 33.16 L30.943001000000002 54.903999999999996 L40.111000000000004 33.16 L22.92 33.16 L22.92 33.16z" stroke="none"/><path fill="#cc6699" fill-opacity="1.0" d="M27.504 50.876000000000005 L30.942999200000003 41.723999 L28.504 38.292 L31.552000300000003 36.292 L34.5270007 38.292 L32.088001500000004 41.723999 L35.527001 50.876000000000005 L30.943001000000002 62.307999 L27.504001907348602 50.876000000000005 L27.504 50.876000000000005z" stroke="none"/><path fill="#ffcc99" fill-opacity="1.0" d="M12.607 83.479 L0.0 83.479 L0.0 87.479 Q0.0 93.767002 6.304 93.767002 Q12.608 93.767002 12.608 87.479 L12.608 83.479 L12.607 83.479z" stroke="none"/><path fill="#ffcc99" fill-opacity="1.0" d="M64.183997 83.479 L51.575 83.479 L51.575 87.479 Q51.575 93.767002 57.879001 93.767002 Q64.183997 93.767002 64.183997 87.479 L64.183997 83.479 L64.183997 83.479z" stroke="none"/><path fill="#333333" fill-opacity="1.0" d="M14.896 144.088 L14.896 146.3759944 Q14.896 154.375994 22.92 154.375994 Q30.943 154.375994 30.943 146.3759944 L30.943 144.088 L14.896 144.088 L33.230000000000004 144.088 L33.230000000000004 146.3759944 Q33.230000000000004 154.375994 41.254997 154.375994 Q49.277996 154.375994 49.277996 146.3759944 L49.277996 144.088 L33.230000000000004 144.088" stroke="none"/><path fill="#333333" fill-opacity="1.0" d="M52.039 33.16 L39.501 33.16 L30.943 53.456001 L23.454 33.16 L12.136 33.16 Q7.1085997 33.16 3.554 36.644996799999994 Q0.0 40.129405999999996 0.0 45.056 L0.0 83.471 L12.607 83.471 L12.607 51.456001 Q12.607 50.312 13.752001 50.312 Q14.896001 50.312 14.896001 51.456001 L14.896001 144.14099 L30.944 144.14099 L30.944 105.167996 L33.231 105.167996 L33.231 144.14099 L49.28 144.14099 L49.28 51.456001 Q49.28 50.312 50.424 50.312 Q51.576 50.312 51.576 51.456001 L51.576 83.471 L64.184 83.471 L64.184 45.056 Q64.184 40.1300813 60.625874 36.645000599999996 Q57.06783 33.16 52.038998 33.16 L52.039 33.16z" stroke="none"/><path fill="#ffcc99" fill-opacity="1.0" d="M35.764001 33.2690003 L31.553000400000002 36.269000000000005 L27.276 33.2690003 L27.276 27.78 L35.764001 27.78 L35.764001 33.268001 L35.764001 33.2690003z" stroke="none"/></g><g transform="translate(432.25800000000004 78.412)"><path fill="#ffcc99" fill-opacity="1.0" d="M16.048 16.5839992 Q16.048 10.4060822 20.577374999999996 6.8103742 Q24.832983 3.4319992 31.519999999999996 3.4319992 Q38.203182 3.4319992 42.460498 6.8103742 Q46.992999999999995 10.4071178 46.992999999999995 16.5839992 Q46.992999999999995 22.9796162 42.460498 27.5019992 Q37.928383 32.0239992 31.519999999999996 32.0239992 Q25.107670999999996 32.0239992 20.577374999999996 27.5019992 Q16.048 22.9809152 16.048 16.5839992 L16.048 16.5839992z" stroke="none"/><path fill="#666666" fill-opacity="1.0" d="M46.144001 12.584 Q45.588500999999994 12.7985 44.607502 12.995125 Q42.6455 13.388374 40.518001999999996 13.299 Q37.539501 13.173875 34.655502 12.101375 Q31.0505 10.760749 27.800000999999998 8.007999 Q27.498562999999997 8.372499 26.944156 8.918625 Q25.835345999999998 10.010874 24.570501 10.918999 Q20.523001999999998 13.824999 16.433002 13.799999 Q17.0471282 7.9533305 21.433124 3.990375 Q25.849466 0.0 31.815999499999997 0.0 Q44.164108 0.0 46.903999 12.008 Q46.575805 12.27961 46.142996999999994 12.584001 L46.144001 12.584z" stroke="none"/><path fill="#ffffff" fill-opacity="1.0" d="M22.92 33.16 L30.943001000000002 54.903999999999996 L40.111000000000004 33.16 L22.92 33.16 L22.92 33.16z" stroke="none"/><path fill="#cc6699" fill-opacity="1.0" d="M27.504 50.876000000000005 L30.942999200000003 41.723999 L28.504 38.292 L31.552000300000003 36.292 L34.5270007 38.292 L32.088001500000004 41.723999 L35.527001 50.876000000000005 L30.943001000000002 62.307999 L27.504001907348602 50.876000000000005 L27.504 50.876000000000005z" stroke="none"/><path fill="#ffcc99" fill-opacity="1.0" d="M12.607 83.479 L0.0 83.479 L0.0 87.479 Q0.0 93.767002 6.304 93.767002 Q12.608 93.767002 12.608 87.479 L12.608 83.479 L12.607 83.479z" stroke="none"/><path fill="#ffcc99" fill-opacity="1.0" d="M64.183997 83.479 L51.575 83.479 L51.575 87.479 Q51.575 93.767002 57.879001 93.767002 Q64.183997 93.767002 64.183997 87.479 L64.183997 83.479 L64.183997 83.479z" stroke="none"/><path fill="#333333" fill-opacity="1.0" d="M14.896 144.088 L14.896 146.3759944 Q14.896 154.375994 22.92 154.375994 Q30.943 154.375994 30.943 146.3759944 L30.943 144.088 L14.896 144.088 L33.230000000000004 144.088 L33.230000000000004 146.3759944 Q33.230000000000004 154.375994 41.254997 154.375994 Q49.277996 154.375994 49.277996 146.3759944 L49.277996 144.088 L33.230000000000004 144.088" stroke="none"/><path fill="#333333" fill-opacity="1.0" d="M52.039 33.16 L39.501 33.16 L30.943 53.456001 L23.454 33.16 L12.136 33.16 Q7.1085997 33.16 3.554 36.644996799999994 Q0.0 40.129405999999996 0.0 45.056 L0.0 83.471 L12.607 83.471 L12.607 51.456001 Q12.607 50.312 13.752001 50.312 Q14.896001 50.312 14.896001 51.456001 L14.896001 144.14099 L30.944 144.14099 L30.944 105.167996 L33.231 105.167996 L33.231 144.14099 L49.28 144.14099 L49.28 51.456001 Q49.28 50.312 50.424 50.312 Q51.576 50.312 51.576 51.456001 L51.576 83.471 L64.184 83.471 L64.184 45.056 Q64.184 40.1300813 60.625874 36.645000599999996 Q57.06783 33.16 52.038998 33.16 L52.039 33.16z" stroke="none"/><path fill="#ffcc99" fill-opacity="1.0" d="M35.764001 33.2690003 L31.553000400000002 36.269000000000005 L27.276 33.2690003 L27.276 27.78 L35.764001 27.78 L35.764001 33.268001 L35.764001 33.2690003z" stroke="none"/></g><g transform="translate(335.258 450.6)"><path fill="#ffcc99" fill-opacity="1.0" d="M16.048 16.5839992 Q16.048 10.4060822 20.577374999999996 6.8103742 Q24.832983 3.4319992 31.519999999999996 3.4319992 Q38.203182 3.4319992 42.460498 6.8103742 Q46.992999999999995 10.4071178 46.992999999999995 16.5839992 Q46.992999999999995 22.9796162 42.460498 27.5019992 Q37.928383 32.0239992 31.519999999999996 32.0239992 Q25.107670999999996 32.0239992 20.577374999999996 27.5019992 Q16.048 22.9809152 16.048 16.5839992 L16.048 16.5839992z" stroke="none"/><path fill="#666666" fill-opacity="1.0" d="M46.144001 12.584 Q45.588500999999994 12.7985 44.607502 12.995125 Q42.6455 13.388374 40.518001999999996 13.299 Q37.539501 13.173875 34.655502 12.101375 Q31.0505 10.760749 27.800000999999998 8.007999 Q27.498562999999997 8.372499 26.944156 8.918625 Q25.835345999999998 10.010874 24.570501 10.918999 Q20.523001999999998 13.824999 16.433002 13.799999 Q17.0471282 7.9533305 21.433124 3.990375 Q25.849466 0.0 31.815999499999997 0.0 Q44.164108 0.0 46.903999 12.008 Q46.575805 12.27961 46.142996999999994 12.584001 L46.144001 12.584z" stroke="none"/><path fill="#ffffff" fill-opacity="1.0" d="M22.92 33.16 L30.943001000000002 54.903999999999996 L40.111000000000004 33.16 L22.92 33.16 L22.92 33.16z" stroke="none"/><path fill="#cc6699" fill-opacity="1.0" d="M27.504 50.876000000000005 L30.942999200000003 41.723999 L28.504 38.292 L31.552000300000003 36.292 L34.5270007 38.292 L32.088001500000004 41.723999 L35.527001 50.876000000000005 L30.943001000000002 62.307999 L27.504001907348602 50.876000000000005 L27.504 50.876000000000005z" stroke="none"/><path fill="#ffcc99" fill-opacity="1.0" d="M12.607 83.479 L0.0 83.479 L0.0 87.479 Q0.0 93.767002 6.304 93.767002 Q12.608 93.767002 12.608 87.479 L12.608 83.479 L12.607 83.479z" stroke="none"/><path fill="#ffcc99" fill-opacity="1.0" d="M64.183997 83.479 L51.575 83.479 L51.575 87.479 Q51.575 93.767002 57.879001 93.767002 Q64.183997 93.767002 64.183997 87.479 L64.183997 83.479 L64.183997 83.479z" stroke="none"/><path fill="#333333" fill-opacity="1.0" d="M14.896 144.088 L14.896 146.3759944 Q14.896 154.375994 22.92 154.375994 Q30.943 154.375994 30.943 146.3759944 L30.943 144.088 L14.896 144.088 L33.230000000000004 144.088 L33.230000000000004 146.3759944 Q33.230000000000004 154.375994 41.254997 154.375994 Q49.277996 154.375994 49.277996 146.3759944 L49.277996 144.088 L33.230000000000004 144.088" stroke="none"/><path fill="#333333" fill-opacity="1.0" d="M52.039 33.16 L39.501 33.16 L30.943 53.456001 L23.454 33.16 L12.136 33.16 Q7.1085997 33.16 3.554 36.644996799999994 Q0.0 40.129405999999996 0.0 45.056 L0.0 83.471 L12.607 83.471 L12.607 51.456001 Q12.607 50.312 13.752001 50.312 Q14.896001 50.312 14.896001 51.456001 L14.896001 144.14099 L30.944 144.14099 L30.944 105.167996 L33.231 105.167996 L33.231 144.14099 L49.28 144.14099 L49.28 51.456001 Q49.28 50.312 50.424 50.312 Q51.576 50.312 51.576 51.456001 L51.576 83.471 L64.184 83.471 L64.184 45.056 Q64.184 40.1300813 60.625874 36.645000599999996 Q57.06783 33.16 52.038998 33.16 L52.039 33.16z" stroke="none"/><path fill="#ffcc99" fill-opacity="1.0" d="M35.764001 33.2690003 L31.553000400000002 36.269000000000005 L27.276 33.2690003 L27.276 27.78 L35.764001 27.78 L35.764001 33.268001 L35.764001 33.2690003z" stroke="none"/></g><g transform="translate(236.25799999999998 450.6)"><path fill="#ffcc99" fill-opacity="1.0" d="M16.048 16.5839992 Q16.048 10.4060822 20.577374999999996 6.8103742 Q24.832983 3.4319992 31.519999999999996 3.4319992 Q38.203182 3.4319992 42.460498 6.8103742 Q46.992999999999995 10.4071178 46.992999999999995 16.5839992 Q46.992999999999995 22.9796162 42.460498 27.5019992 Q37.928383 32.0239992 31.519999999999996 32.0239992 Q25.107670999999996 32.0239992 20.577374999999996 27.5019992 Q16.048 22.9809152 16.048 16.5839992 L16.048 16.5839992z" stroke="none"/><path fill="#666666" fill-opacity="1.0" d="M46.144001 12.584 Q45.588500999999994 12.7985 44.607502 12.995125 Q42.6455 13.388374 40.518001999999996 13.299 Q37.539501 13.173875 34.655502 12.101375 Q31.0505 10.760749 27.800000999999998 8.007999 Q27.498562999999997 8.372499 26.944156 8.918625 Q25.835345999999998 10.010874 24.570501 10.918999 Q20.523001999999998 13.824999 16.433002 13.799999 Q17.0471282 7.9533305 21.433124 3.990375 Q25.849466 0.0 31.815999499999997 0.0 Q44.164108 0.0 46.903999 12.008 Q46.575805 12.27961 46.142996999999994 12.584001 L46.144001 12.584z" stroke="none"/><path fill="#ffffff" fill-opacity="1.0" d="M22.92 33.16 L30.943001000000002 54.903999999999996 L40.111000000000004 33.16 L22.92 33.16 L22.92 33.16z" stroke="none"/><path fill="#cc6699" fill-opacity="1.0" d="M27.504 50.876000000000005 L30.942999200000003 41.723999 L28.504 38.292 L31.552000300000003 36.292 L34.5270007 38.292 L32.088001500000004 41.723999 L35.527001 50.876000000000005 L30.943001000000002 62.307999 L27.504001907348602 50.876000000000005 L27.504 50.876000000000005z" stroke="none"/><path fill="#ffcc99" fill-opacity="1.0" d="M12.607 83.479 L0.0 83.479 L0.0 87.479 Q0.0 93.767002 6.304 93.767002 Q12.608 93.767002 12.608 87.479 L12.608 83.479 L12.607 83.479z" stroke="none"/><path fill="#ffcc99" fill-opacity="1.0" d="M64.183997 83.479 L51.575 83.479 L51.575 87.479 Q51.575 93.767002 57.879001 93.767002 Q64.183997 93.767002 64.183997 87.479 L64.183997 83.479 L64.183997 83.479z" stroke="none"/><path fill="#333333" fill-opacity="1.0" d="M14.896 144.088 L14.896 146.3759944 Q14.896 154.375994 22.92 154.375994 Q30.943 154.375994 30.943 146.3759944 L30.943 144.088 L14.896 144.088 L33.230000000000004 144.088 L33.230000000000004 146.3759944 Q33.230000000000004 154.375994 41.254997 154.375994 Q49.277996 154.375994 49.277996 146.3759944 L49.277996 144.088 L33.230000000000004 144.088" stroke="none"/><path fill="#333333" fill-opacity="1.0" d="M52.039 33.16 L39.501 33.16 L30.943 53.456001 L23.454 33.16 L12.136 33.16 Q7.1085997 33.16 3.554 36.644996799999994 Q0.0 40.129405999999996 0.0 45.056 L0.0 83.471 L12.607 83.471 L12.607 51.456001 Q12.607 50.312 13.752001 50.312 Q14.896001 50.312 14.896001 51.456001 L14.896001 144.14099 L30.944 144.14099 L30.944 105.167996 L33.231 105.167996 L33.231 144.14099 L49.28 144.14099 L49.28 51.456001 Q49.28 50.312 50.424 50.312 Q51.576 50.312 51.576 51.456001 L51.576 83.471 L64.184 83.471 L64.184 45.056 Q64.184 40.1300813 60.625874 36.645000599999996 Q57.06783 33.16 52.038998 33.16 L52.039 33.16z" stroke="none"/><path fill="#ffcc99" fill-opacity="1.0" d="M35.764001 33.2690003 L31.553000400000002 36.269000000000005 L27.276 33.2690003 L27.276 27.78 L35.764001 27.78 L35.764001 33.268001 L35.764001 33.2690003z" stroke="none"/></g><g transform="translate(432.258 373.41200000000003)"><path fill="#ffcc99" fill-opacity="1.0" d="M16.048 16.5839992 Q16.048 10.4060822 20.577374999999996 6.8103742 Q24.832983 3.4319992 31.519999999999996 3.4319992 Q38.203182 3.4319992 42.460498 6.8103742 Q46.992999999999995 10.4071178 46.992999999999995 16.5839992 Q46.992999999999995 22.9796162 42.460498 27.5019992 Q37.928383 32.0239992 31.519999999999996 32.0239992 Q25.107670999999996 32.0239992 20.577374999999996 27.5019992 Q16.048 22.9809152 16.048 16.5839992 L16.048 16.5839992z" stroke="none"/><path fill="#666666" fill-opacity="1.0" d="M46.144001 12.584 Q45.588500999999994 12.7985 44.607502 12.995125 Q42.6455 13.388374 40.518001999999996 13.299 Q37.539501 13.173875 34.655502 12.101375 Q31.0505 10.760749 27.800000999999998 8.007999 Q27.498562999999997 8.372499 26.944156 8.918625 Q25.835345999999998 10.010874 24.570501 10.918999 Q20.523001999999998 13.824999 16.433002 13.799999 Q17.0471282 7.9533305 21.433124 3.990375 Q25.849466 0.0 31.815999499999997 0.0 Q44.164108 0.0 46.903999 12.008 Q46.575805 12.27961 46.142996999999994 12.584001 L46.144001 12.584z" stroke="none"/><path fill="#ffffff" fill-opacity="1.0" d="M22.92 33.16 L30.943001000000002 54.903999999999996 L40.111000000000004 33.16 L22.92 33.16 L22.92 33.16z" stroke="none"/><path fill="#cc6699" fill-opacity="1.0" d="M27.504 50.876000000000005 L30.942999200000003 41.723999 L28.504 38.292 L31.552000300000003 36.292 L34.5270007 38.292 L32.088001500000004 41.723999 L35.527001 50.876000000000005 L30.943001000000002 62.307999 L27.504001907348602 50.876000000000005 L27.504 50.876000000000005z" stroke="none"/><path fill="#ffcc99" fill-opacity="1.0" d="M12.607 83.479 L0.0 83.479 L0.0 87.479 Q0.0 93.767002 6.304 93.767002 Q12.608 93.767002 12.608 87.479 L12.608 83.479 L12.607 83.479z" stroke="none"/><path fill="#ffcc99" fill-opacity="1.0" d="M64.183997 83.479 L51.575 83.479 L51.575 87.479 Q51.575 93.767002 57.879001 93.767002 Q64.183997 93.767002 64.183997 87.479 L64.183997 83.479 L64.183997 83.479z" stroke="none"/><path fill="#333333" fill-opacity="1.0" d="M14.896 144.088 L14.896 146.3759944 Q14.896 154.375994 22.92 154.375994 Q30.943 154.375994 30.943 146.3759944 L30.943 144.088 L14.896 144.088 L33.230000000000004 144.088 L33.230000000000004 146.3759944 Q33.230000000000004 154.375994 41.254997 154.375994 Q49.277996 154.375994 49.277996 146.3759944 L49.277996 144.088 L33.230000000000004 144.088" stroke="none"/><path fill="#333333" fill-opacity="1.0" d="M52.039 33.16 L39.501 33.16 L30.943 53.456001 L23.454 33.16 L12.136 33.16 Q7.1085997 33.16 3.554 36.644996799999994 Q0.0 40.129405999999996 0.0 45.056 L0.0 83.471 L12.607 83.471 L12.607 51.456001 Q12.607 50.312 13.752001 50.312 Q14.896001 50.312 14.896001 51.456001 L14.896001 144.14099 L30.944 144.14099 L30.944 105.167996 L33.231 105.167996 L33.231 144.14099 L49.28 144.14099 L49.28 51.456001 Q49.28 50.312 50.424 50.312 Q51.576 50.312 51.576 51.456001 L51.576 83.471 L64.184 83.471 L64.184 45.056 Q64.184 40.1300813 60.625874 36.645000599999996 Q57.06783 33.16 52.038998 33.16 L52.039 33.16z" stroke="none"/><path fill="#ffcc99" fill-opacity="1.0" d="M35.764001 33.2690003 L31.553000400000002 36.269000000000005 L27.276 33.2690003 L27.276 27.78 L35.764001 27.78 L35.764001 33.268001 L35.764001 33.2690003z" stroke="none"/></g><g transform="translate(142.16599999999994 373.41200000000003)"><path fill="#ffcc99" fill-opacity="1.0" d="M16.048 16.5839992 Q16.048 10.4060822 20.577374999999996 6.8103742 Q24.832983 3.4319992 31.519999999999996 3.4319992 Q38.203182 3.4319992 42.460498 6.8103742 Q46.992999999999995 10.4071178 46.992999999999995 16.5839992 Q46.992999999999995 22.9796162 42.460498 27.5019992 Q37.928383 32.0239992 31.519999999999996 32.0239992 Q25.107670999999996 32.0239992 20.577374999999996 27.5019992 Q16.048 22.9809152 16.048 16.5839992 L16.048 16.5839992z" stroke="none"/><path fill="#666666" fill-opacity="1.0" d="M46.144001 12.584 Q45.588500999999994 12.7985 44.607502 12.995125 Q42.6455 13.388374 40.518001999999996 13.299 Q37.539501 13.173875 34.655502 12.101375 Q31.0505 10.760749 27.800000999999998 8.007999 Q27.498562999999997 8.372499 26.944156 8.918625 Q25.835345999999998 10.010874 24.570501 10.918999 Q20.523001999999998 13.824999 16.433002 13.799999 Q17.0471282 7.9533305 21.433124 3.990375 Q25.849466 0.0 31.815999499999997 0.0 Q44.164108 0.0 46.903999 12.008 Q46.575805 12.27961 46.142996999999994 12.584001 L46.144001 12.584z" stroke="none"/><path fill="#ffffff" fill-opacity="1.0" d="M22.92 33.16 L30.943001000000002 54.903999999999996 L40.111000000000004 33.16 L22.92 33.16 L22.92 33.16z" stroke="none"/><path fill="#cc6699" fill-opacity="1.0" d="M27.504 50.876000000000005 L30.942999200000003 41.723999 L28.504 38.292 L31.552000300000003 36.292 L34.5270007 38.292 L32.088001500000004 41.723999 L35.527001 50.876000000000005 L30.943001000000002 62.307999 L27.504001907348602 50.876000000000005 L27.504 50.876000000000005z" stroke="none"/><path fill="#ffcc99" fill-opacity="1.0" d="M12.607 83.479 L0.0 83.479 L0.0 87.479 Q0.0 93.767002 6.304 93.767002 Q12.608 93.767002 12.608 87.479 L12.608 83.479 L12.607 83.479z" stroke="none"/><path fill="#ffcc99" fill-opacity="1.0" d="M64.183997 83.479 L51.575 83.479 L51.575 87.479 Q51.575 93.767002 57.879001 93.767002 Q64.183997 93.767002 64.183997 87.479 L64.183997 83.479 L64.183997 83.479z" stroke="none"/><path fill="#333333" fill-opacity="1.0" d="M14.896 144.088 L14.896 146.3759944 Q14.896 154.375994 22.92 154.375994 Q30.943 154.375994 30.943 146.3759944 L30.943 144.088 L14.896 144.088 L33.230000000000004 144.088 L33.230000000000004 146.3759944 Q33.230000000000004 154.375994 41.254997 154.375994 Q49.277996 154.375994 49.277996 146.3759944 L49.277996 144.088 L33.230000000000004 144.088" stroke="none"/><path fill="#333333" fill-opacity="1.0" d="M52.039 33.16 L39.501 33.16 L30.943 53.456001 L23.454 33.16 L12.136 33.16 Q7.1085997 33.16 3.554 36.644996799999994 Q0.0 40.129405999999996 0.0 45.056 L0.0 83.471 L12.607 83.471 L12.607 51.456001 Q12.607 50.312 13.752001 50.312 Q14.896001 50.312 14.896001 51.456001 L14.896001 144.14099 L30.944 144.14099 L30.944 105.167996 L33.231 105.167996 L33.231 144.14099 L49.28 144.14099 L49.28 51.456001 Q49.28 50.312 50.424 50.312 Q51.576 50.312 51.576 51.456001 L51.576 83.471 L64.184 83.471 L64.184 45.056 Q64.184 40.1300813 60.625874 36.645000599999996 Q57.06783 33.16 52.038998 33.16 L52.039 33.16z" stroke="none"/><path fill="#ffcc99" fill-opacity="1.0" d="M35.764001 33.2690003 L31.553000400000002 36.269000000000005 L27.276 33.2690003 L27.276 27.78 L35.764001 27.78 L35.764001 33.268001 L35.764001 33.2690003z" stroke="none"/></g><g transform="translate(335.258 11.224000000000032)"><path fill="#ffcc99" fill-opacity="1.0" d="M16.048 16.5839992 Q16.048 10.4060822 20.577374999999996 6.8103742 Q24.832983 3.4319992 31.519999999999996 3.4319992 Q38.203182 3.4319992 42.460498 6.8103742 Q46.992999999999995 10.4071178 46.992999999999995 16.5839992 Q46.992999999999995 22.9796162 42.460498 27.5019992 Q37.928383 32.0239992 31.519999999999996 32.0239992 Q25.107670999999996 32.0239992 20.577374999999996 27.5019992 Q16.048 22.9809152 16.048 16.5839992 L16.048 16.5839992z" stroke="none"/><path fill="#666666" fill-opacity="1.0" d="M46.144001 12.584 Q45.588500999999994 12.7985 44.607502 12.995125 Q42.6455 13.388374 40.518001999999996 13.299 Q37.539501 13.173875 34.655502 12.101375 Q31.0505 10.760749 27.800000999999998 8.007999 Q27.498562999999997 8.372499 26.944156 8.918625 Q25.835345999999998 10.010874 24.570501 10.918999 Q20.523001999999998 13.824999 16.433002 13.799999 Q17.0471282 7.9533305 21.433124 3.990375 Q25.849466 0.0 31.815999499999997 0.0 Q44.164108 0.0 46.903999 12.008 Q46.575805 12.27961 46.142996999999994 12.584001 L46.144001 12.584z" stroke="none"/><path fill="#ffffff" fill-opacity="1.0" d="M22.92 33.16 L30.943001000000002 54.903999999999996 L40.111000000000004 33.16 L22.92 33.16 L22.92 33.16z" stroke="none"/><path fill="#cc6699" fill-opacity="1.0" d="M27.504 50.876000000000005 L30.942999200000003 41.723999 L28.504 38.292 L31.552000300000003 36.292 L34.5270007 38.292 L32.088001500000004 41.723999 L35.527001 50.876000000000005 L30.943001000000002 62.307999 L27.504001907348602 50.876000000000005 L27.504 50.876000000000005z" stroke="none"/><path fill="#ffcc99" fill-opacity="1.0" d="M12.607 83.479 L0.0 83.479 L0.0 87.479 Q0.0 93.767002 6.304 93.767002 Q12.608 93.767002 12.608 87.479 L12.608 83.479 L12.607 83.479z" stroke="none"/><path fill="#ffcc99" fill-opacity="1.0" d="M64.183997 83.479 L51.575 83.479 L51.575 87.479 Q51.575 93.767002 57.879001 93.767002 Q64.183997 93.767002 64.183997 87.479 L64.183997 83.479 L64.183997 83.479z" stroke="none"/><path fill="#333333" fill-opacity="1.0" d="M14.896 144.088 L14.896 146.3759944 Q14.896 154.375994 22.92 154.375994 Q30.943 154.375994 30.943 146.3759944 L30.943 144.088 L14.896 144.088 L33.230000000000004 144.088 L33.230000000000004 146.3759944 Q33.230000000000004 154.375994 41.254997 154.375994 Q49.277996 154.375994 49.277996 146.3759944 L49.277996 144.088 L33.230000000000004 144.088" stroke="none"/><path fill="#333333" fill-opacity="1.0" d="M52.039 33.16 L39.501 33.16 L30.943 53.456001 L23.454 33.16 L12.136 33.16 Q7.1085997 33.16 3.554 36.644996799999994 Q0.0 40.129405999999996 0.0 45.056 L0.0 83.471 L12.607 83.471 L12.607 51.456001 Q12.607 50.312 13.752001 50.312 Q14.896001 50.312 14.896001 51.456001 L14.896001 144.14099 L30.944 144.14099 L30.944 105.167996 L33.231 105.167996 L33.231 144.14099 L49.28 144.14099 L49.28 51.456001 Q49.28 50.312 50.424 50.312 Q51.576 50.312 51.576 51.456001 L51.576 83.471 L64.184 83.471 L64.184 45.056 Q64.184 40.1300813 60.625874 36.645000599999996 Q57.06783 33.16 52.038998 33.16 L52.039 33.16z" stroke="none"/><path fill="#ffcc99" fill-opacity="1.0" d="M35.764001 33.2690003 L31.553000400000002 36.269000000000005 L27.276 33.2690003 L27.276 27.78 L35.764001 27.78 L35.764001 33.268001 L35.764001 33.2690003z" stroke="none"/></g><g transform="translate(236.25800000000004 11.224000000000018)"><path fill="#ffcc99" fill-opacity="1.0" d="M16.048 16.5839992 Q16.048 10.4060822 20.577374999999996 6.8103742 Q24.832983 3.4319992 31.519999999999996 3.4319992 Q38.203182 3.4319992 42.460498 6.8103742 Q46.992999999999995 10.4071178 46.992999999999995 16.5839992 Q46.992999999999995 22.9796162 42.460498 27.5019992 Q37.928383 32.0239992 31.519999999999996 32.0239992 Q25.107670999999996 32.0239992 20.577374999999996 27.5019992 Q16.048 22.9809152 16.048 16.5839992 L16.048 16.5839992z" stroke="none"/><path fill="#666666" fill-opacity="1.0" d="M46.144001 12.584 Q45.588500999999994 12.7985 44.607502 12.995125 Q42.6455 13.388374 40.518001999999996 13.299 Q37.539501 13.173875 34.655502 12.101375 Q31.0505 10.760749 27.800000999999998 8.007999 Q27.498562999999997 8.372499 26.944156 8.918625 Q25.835345999999998 10.010874 24.570501 10.918999 Q20.523001999999998 13.824999 16.433002 13.799999 Q17.0471282 7.9533305 21.433124 3.990375 Q25.849466 0.0 31.815999499999997 0.0 Q44.164108 0.0 46.903999 12.008 Q46.575805 12.27961 46.142996999999994 12.584001 L46.144001 12.584z" stroke="none"/><path fill="#ffffff" fill-opacity="1.0" d="M22.92 33.16 L30.943001000000002 54.903999999999996 L40.111000000000004 33.16 L22.92 33.16 L22.92 33.16z" stroke="none"/><path fill="#cc6699" fill-opacity="1.0" d="M27.504 50.876000000000005 L30.942999200000003 41.723999 L28.504 38.292 L31.552000300000003 36.292 L34.5270007 38.292 L32.088001500000004 41.723999 L35.527001 50.876000000000005 L30.943001000000002 62.307999 L27.504001907348602 50.876000000000005 L27.504 50.876000000000005z" stroke="none"/><path fill="#ffcc99" fill-opacity="1.0" d="M12.607 83.479 L0.0 83.479 L0.0 87.479 Q0.0 93.767002 6.304 93.767002 Q12.608 93.767002 12.608 87.479 L12.608 83.479 L12.607 83.479z" stroke="none"/><path fill="#ffcc99" fill-opacity="1.0" d="M64.183997 83.479 L51.575 83.479 L51.575 87.479 Q51.575 93.767002 57.879001 93.767002 Q64.183997 93.767002 64.183997 87.479 L64.183997 83.479 L64.183997 83.479z" stroke="none"/><path fill="#333333" fill-opacity="1.0" d="M14.896 144.088 L14.896 146.3759944 Q14.896 154.375994 22.92 154.375994 Q30.943 154.375994 30.943 146.3759944 L30.943 144.088 L14.896 144.088 L33.230000000000004 144.088 L33.230000000000004 146.3759944 Q33.230000000000004 154.375994 41.254997 154.375994 Q49.277996 154.375994 49.277996 146.3759944 L49.277996 144.088 L33.230000000000004 144.088" stroke="none"/><path fill="#333333" fill-opacity="1.0" d="M52.039 33.16 L39.501 33.16 L30.943 53.456001 L23.454 33.16 L12.136 33.16 Q7.1085997 33.16 3.554 36.644996799999994 Q0.0 40.129405999999996 0.0 45.056 L0.0 83.471 L12.607 83.471 L12.607 51.456001 Q12.607 50.312 13.752001 50.312 Q14.896001 50.312 14.896001 51.456001 L14.896001 144.14099 L30.944 144.14099 L30.944 105.167996 L33.231 105.167996 L33.231 144.14099 L49.28 144.14099 L49.28 51.456001 Q49.28 50.312 50.424 50.312 Q51.576 50.312 51.576 51.456001 L51.576 83.471 L64.184 83.471 L64.184 45.056 Q64.184 40.1300813 60.625874 36.645000599999996 Q57.06783 33.16 52.038998 33.16 L52.039 33.16z" stroke="none"/><path fill="#ffcc99" fill-opacity="1.0" d="M35.764001 33.2690003 L31.553000400000002 36.269000000000005 L27.276 33.2690003 L27.276 27.78 L35.764001 27.78 L35.764001 33.268001 L35.764001 33.2690003z" stroke="none"/></g><g transform="translate(236.25800000000004 232.788)"><path fill="#ffffff" fill-opacity="1.0" d="M163.18399999999997 148.742 Q163.18399999999997 153.742 158.18399999999997 153.742 L5.0 153.742 Q0.0 153.742 0.0 148.742 L0.0 5.0 Q0.0 0.0 5.0 0.0 L158.18399999999997 0.0 Q163.18399999999997 0.0 163.18399999999997 5.0 L163.18399999999997 148.742 L163.18399999999997 148.742z" stroke-width="1.0" stroke-linejoin="round" stroke="#000000"/><g transform="translate(1.0 1.0)"><clipPath id="id0"><path d="M0 0 L161.1839999999999 0 L161.1839999999999 151.74199999999996 L0 151.74199999999996z"/></clipPath><text font-size="12" clip-path="url(#id0)" text-decoration="none" fill="#000000" font-family="Arial,Arial" font-style="normal" font-weight="normal"/></g></g><g transform="translate(243.0 241.0)"><clipPath id="id1"><path d="M0 0 L150.0 0 L150.0 40.0 L0 40.0z"/></clipPath><text font-size="24" clip-path="url(#id1)" text-decoration="none" fill="#000000" font-family="Arial,Arial" font-style="normal" font-weight="normal"><tspan x="2.0" xml:space="preserve" y="24.0" textLength="120.0">Bug Report</tspan></text></g><g transform="translate(244.0 292.0)"><clipPath id="id2"><path d="M0 0 L150.0 0 L150.0 40.0 L0 40.0z"/></clipPath><text font-size="12" clip-path="url(#id2)" text-decoration="none" fill="#000000" font-family="Arial,Arial" font-style="normal" font-weight="normal"><tspan x="2.0" xml:space="preserve" y="13.0" textLength="111.0">Fix the flux capacitor</tspan></text></g><g transform="translate(236.0 334.54400000000004)"><path fill="#ffffff" fill-opacity="1.0" d="M162.99999999999997 52.00000000000001 L0.0 52.00000000000001 L0.0 0.0 L162.99999999999997 0.0 L162.99999999999997 52.00000000000001z" stroke-width="1.0" stroke-linejoin="round" stroke="#000000"/><g transform="translate(1.0 1.0)"><clipPath id="id3"><path d="M0 0 L161.0 0 L161.0 50.0 L0 50.0z"/></clipPath><text font-size="12" clip-path="url(#id3)" text-decoration="none" fill="#000000" font-family="Arial,Arial" font-style="normal" font-weight="normal"/></g></g><g transform="translate(235.62900000000002 339.0)"><clipPath id="id4"><path d="M0 0 L155.0 0 L155.0 42.412000000000035 L0 42.412000000000035z"/></clipPath><text font-size="12" clip-path="url(#id4)" text-decoration="none" fill="#000000" font-family="Arial,Arial" font-style="normal" font-weight="normal"><tspan x="49.0" xml:space="preserve" y="13.0" textLength="56.0">comments</tspan><tspan x="73.0" xml:space="preserve" y="27.0" textLength="9.0">...</tspan></text></g></g></svg>